<svg width="399" height="173" viewBox="0 0 399 173" fill="none" xmlns="http://www.w3.org/2000/svg">
<path d="M208.624 59.8L212.024 59.8999L214.724 60L219.924 60.0999L234.024 60.3999L235.824 28.7L230.324 28.3999L227.624 28.2L222.424 54.8999L214.724 59L215.924 37.8999L213.524 37.7999L211.824 37.7L208.624 59.8Z" fill="url(#paint0_linear_16365_54427)"/>
<path opacity="0.26" d="M235.223 39.5999L225.523 39.2L224.123 45.8999L234.923 45.7L235.223 39.5999Z" fill="url(#paint1_linear_16365_54427)"/>
<path opacity="0.85" d="M211.924 60.5999L233.524 64.8999L234.024 62.9999L235.824 28.6999L230.324 28.3999L235.224 28.9999L231.124 59.7999L219.924 60.0999L214.624 60.1999L214.724 59.9999L215.924 37.8999L213.524 37.7999L215.324 38.1999L212.024 59.8999L211.924 60.5999Z" fill="url(#paint2_linear_16365_54427)"/>
<path d="M59.4273 122L59.6273 129.6H60.2273L60.4273 123.8L60.5273 122.5V121.9L59.4273 122Z" fill="#0D9BF0"/>
<path d="M39.3273 124L40.2273 125.2L44.8273 123C46.1273 123 53.8273 123.2 59.2273 123.7C59.5273 123.7 59.9273 123.8 60.2273 123.8C62.2273 124 63.7273 124.3 64.2273 124.7C66.3273 126.2 64.4273 130.3 64.4273 130.3H65.4273C65.4273 130.3 67.8273 126.2 72.0273 121.7C72.3273 121.3 72.7273 121 73.0273 120.6C74.7273 118.9 76.6273 117.1 78.7273 115.5C79.1273 115.2 79.4273 115 79.8273 114.7C81.5273 113.5 83.4273 112.4 85.3273 111.6C85.7273 111.4 86.2273 111.2 86.6273 111.1C87.1273 110.9 87.5273 110.8 88.0273 110.6C97.9273 107.4 101.927 112.4 101.927 112.4C101.927 112.4 103.927 107.3 111.927 101.6C112.727 101 113.627 100.5 114.527 99.9C114.827 99.7 115.027 99.6 115.327 99.4C125.427 93.6 145.827 89.8 147.527 89.4L148.527 87C89.8273 99.1 39.3273 124 39.3273 124Z" fill="#19ABFC"/>
<path d="M107.424 131.5H108.524L113.824 107.3L115.624 99.5999L115.824 98.2L112.524 99.7L112.224 101.7L111.124 108.7L107.424 131.5Z" fill="#0D9BF0"/>
<path d="M85.6258 130.4H86.2258L87.2258 121.1L88.3258 110.6L88.4258 109.4H87.0258L86.9258 111.1L86.2258 121.6L85.6258 130.4Z" fill="#0D9BF0"/>
<path d="M77.5258 130.7H78.1258L78.7258 125.5L80.1258 114.7L80.4258 111.8L79.2258 113.3L79.0258 115.5L78.0258 125.9L77.5258 130.7Z" fill="#0D9BF0"/>
<path d="M71.9266 130.1L72.3266 130L72.4266 128.8L73.3266 120.6L73.7266 116.8H73.6266L72.5266 116.2L72.4266 118L72.2266 121.7L71.9266 129.1V130.1Z" fill="#0D9BF0"/>
<path opacity="0.85" d="M45.1242 123C46.4242 123 54.1242 123.2 59.5242 123.7L59.7242 129.6H60.2242L60.5242 123.8C62.5242 124 64.0242 124.3 64.5242 124.7C66.6242 126.2 64.7242 130.3 64.7242 130.3H65.7242C65.7242 130.3 68.1242 126.2 72.3242 121.7L72.0242 129.1L72.5242 128.8L73.3242 120.6C75.0242 118.9 76.9242 117.1 79.0242 115.5L78.0242 125.9L78.7242 125.5L80.1242 114.7C81.8242 113.5 83.7242 112.4 85.6242 111.6C86.0242 111.4 86.5242 111.2 86.9242 111.1L86.2242 121.6L87.2242 121.1L88.3242 110.6C98.2242 107.4 102.224 112.4 102.224 112.4C102.224 112.4 104.224 107.3 112.224 101.6L111.124 108.6L113.924 107.2L115.624 99.5C125.724 93.7 146.124 89.9 147.824 89.5C145.924 89.8 120.624 94.1 112.124 99.1C103.324 104.3 104.724 105.5 101.324 106.9C98.0242 108.3 91.7242 107.5 83.9242 109.5C79.5242 110.6 76.4242 113.9 73.6242 116.8C73.2242 117.2 72.8242 117.6 72.4242 118C70.6242 119.8 69.0242 121.2 67.1242 121.7C65.6242 122.1 63.2242 122.3 60.5242 122.5C60.1242 122.5 59.8242 122.5 59.4242 122.6C53.3242 122.9 46.2242 123 45.1242 123Z" fill="#2994D3"/>
<path d="M283.227 42.3L288.727 0L282.327 42.3H283.227Z" fill="url(#paint3_linear_16365_54427)"/>
<path d="M286.627 40.3999C286.927 39.9999 289.527 26.7 289.527 26.7L285.827 39.8L286.627 40.3999Z" fill="#0D9BF0"/>
<path d="M299.825 48.7001L301.625 40.6001L282.425 37.1001L281.525 41.8001L265.925 40.5001L251.525 45.7001L299.825 48.7001Z" fill="url(#paint4_linear_16365_54427)"/>
<path d="M282.425 37.1001L299.525 40.8001L297.325 48.5001L288.425 48.0001L281.525 41.8001L267.625 40.6001L277.025 42.0001L280.025 47.8001L299.825 48.7001L301.625 40.6001L282.425 37.1001Z" fill="url(#paint5_linear_16365_54427)"/>
<path d="M303.227 48.6001L307.227 28.1001L302.727 48.6001H303.227Z" fill="#0D9BF0"/>
<path d="M199.327 61.1L307.527 67.1L311.527 48.4C311.227 48.3 290.927 43.3001 257.027 44.5001C234.527 45.3001 216.627 52.3 207.027 56.9C202.127 59.3 199.327 61.1 199.327 61.1Z" fill="url(#paint6_linear_16365_54427)"/>
<path opacity="0.63" d="M207.027 56.9L217.227 57.6C217.227 57.6 239.227 47.2 255.127 45.9C270.927 44.6 311.027 48.4 311.527 48.4C311.227 48.3 290.927 43.3001 257.027 44.5001C234.527 45.3001 216.627 52.2 207.027 56.9Z" fill="url(#paint7_linear_16365_54427)"/>
<path opacity="0.64" d="M301.127 64.1L304.027 48.7L302.627 48.6L298.127 64.3L292.327 63.9L294.427 47.8H293.427L289.227 63.9L258.527 61.6L260.227 47.6C260.227 47.6 234.727 46.3 214.427 57.7C194.127 69.1 301.127 64.1 301.127 64.1Z" fill="#88D4FC"/>
<path opacity="0.64" d="M293.027 63.8999L292.927 64.5C295.627 64.4 297.727 64.3 299.227 64.3L303.127 50.7L303.827 50.8L304.227 48.8L302.827 48.7L298.327 64.3999L293.027 63.8999Z" fill="#A4C9F9"/>
<path opacity="0.64" d="M259.225 61.7L259.025 63.7L276.425 65C281.525 64.9 286.225 64.6999 290.125 64.5999L294.025 49.8H294.325L294.625 47.7H293.625L289.425 63.8L259.225 61.7Z" fill="#A4C9F9"/>
<path opacity="0.64" d="M212.627 61.5001C213.027 61.0001 213.727 60.4001 214.827 59.8001C233.327 49.4001 256.127 49.6001 260.027 49.7001L260.227 47.7001C260.227 47.7001 234.727 46.4001 214.427 57.8001C211.727 59.2001 211.327 60.5001 212.627 61.5001Z" fill="#A4C9F9"/>
<path opacity="0.79" d="M56.925 138.9L249.425 158L387.625 135.8C386.725 118.4 379.325 98.4999 379.325 98.4999L359.725 96.6999L359.425 87.2999L338.425 85.5999L337.725 65.3999L191.125 55.8999L175.725 83.1999L169.825 83.3999L157.725 106.8L122.825 105.9L109.425 130L58.225 128.3L56.925 138.9Z" fill="url(#paint8_linear_16365_54427)"/>
<path opacity="0.79" d="M169.924 83.3999L340.424 95.3999L359.824 96.6999L359.524 87.2999L338.524 85.5999L337.824 65.3999L191.324 55.8999L175.824 83.1999L169.924 83.3999Z" fill="url(#paint9_linear_16365_54427)"/>
<path d="M383.225 116L386.125 132.2L280.425 153.1L140.725 141.9L156.825 108.4L383.225 116Z" fill="url(#paint10_linear_16365_54427)"/>
<path opacity="0.62" d="M338.125 128.3L208.025 124.2L206.225 130.1L180.525 137.9L154.425 137.7L164.525 109.4L156.825 108.4L140.725 141.9L315.925 149.5L337.625 132.4L338.125 128.3Z" fill="#22A8F8"/>
<path opacity="0.62" d="M326.027 79.6999L181.627 73.0999L186.127 66.3999L326.027 77.5999V79.6999Z" fill="#66B3FF"/>
<path d="M364.228 115.7L367.428 156.6L368.328 156.4L365.028 115.6L364.228 115.7Z" fill="url(#paint11_linear_16365_54427)"/>
<path d="M373.625 115.9L378.025 156.5H378.625L374.125 115.8L373.625 115.9Z" fill="url(#paint12_linear_16365_54427)"/>
<path d="M379.827 116.1L386.327 156.5L386.727 156.4L380.127 116.1H379.827Z" fill="url(#paint13_linear_16365_54427)"/>
<path d="M158.927 108.6L144.627 146.9L144.927 147L159.227 108.7L158.927 108.6Z" fill="url(#paint14_linear_16365_54427)"/>
<path d="M163.927 109.2L150.127 147.7L150.727 147.9L164.527 109.4L163.927 109.2Z" fill="url(#paint15_linear_16365_54427)"/>
<path d="M170.626 109.3L158.826 147.9L159.126 148.1L170.926 109.4L170.626 109.3Z" fill="url(#paint16_linear_16365_54427)"/>
<path d="M180.227 109.6L170.027 149.1L170.927 149.3L181.027 109.8L180.227 109.6Z" fill="url(#paint17_linear_16365_54427)"/>
<path d="M190.325 109.8L183.025 150.2L184.025 150.3L191.125 109.9L190.325 109.8Z" fill="url(#paint18_linear_16365_54427)"/>
<path d="M199.527 110.2L193.527 150.6L194.227 150.7L200.027 110.2H199.527Z" fill="url(#paint19_linear_16365_54427)"/>
<path d="M232.026 111.1L228.026 151.7L228.526 151.8L232.426 111.1H232.026Z" fill="url(#paint20_linear_16365_54427)"/>
<path d="M243.527 111.2L240.527 152L241.127 152.1L244.027 111.3L243.527 111.2Z" fill="url(#paint21_linear_16365_54427)"/>
<path d="M265.325 112.1L262.425 152.9L263.325 153L266.125 112.1H265.325Z" fill="url(#paint22_linear_16365_54427)"/>
<path d="M275.827 112.2L274.427 153.1H274.927L276.227 112.3L275.827 112.2Z" fill="url(#paint23_linear_16365_54427)"/>
<path d="M286.325 112.9L284.825 153.6H285.825L287.125 112.9H286.325Z" fill="url(#paint24_linear_16365_54427)"/>
<path d="M319.727 114L319.827 154.8L320.727 154.7L320.527 114H319.727Z" fill="url(#paint25_linear_16365_54427)"/>
<path d="M330.828 114.6L331.328 155.6L332.328 155.5L331.628 114.5L330.828 114.6Z" fill="url(#paint26_linear_16365_54427)"/>
<path d="M139.127 139.4L149.027 111.7L123.227 111.3L119.627 116.7L142.127 117.1L140.027 123.7L116.727 122.9L112.227 130L138.227 129.8L136.027 136.3L109.327 135.6L104.327 142.9L137.827 143.3L139.127 139.4Z" fill="url(#paint27_linear_16365_54427)"/>
<path opacity="0.53" d="M122.627 116.7L124.127 112.5H148.727L149.027 111.7L123.227 111.3L119.627 116.7H122.627Z" fill="#178CFF"/>
<path opacity="0.53" d="M140.027 123.7L116.727 122.9L112.227 130H115.127L117.927 124.2L140.827 124.8L142.527 118.3L142.127 117.1L140.027 123.7Z" fill="#4299C6"/>
<path opacity="0.53" d="M138.227 129.8L139.027 131.2L137.027 138.1L110.527 137.9L107.827 142.8L104.327 142.9L109.327 135.6L136.027 136.3L138.227 129.8Z" fill="#16A3EB"/>
<path opacity="0.79" d="M224.824 79L340.824 88.7L340.424 95.3999L359.824 96.7L359.524 87.3L338.524 85.5999L337.824 65.3999L190.224 57.7L327.324 69.8999L327.824 84.5L224.824 79Z" fill="url(#paint28_linear_16365_54427)"/>
<path d="M341.824 65.9001L179.324 57.2001L177.524 53.1001L341.824 64.5001V65.9001Z" fill="url(#paint29_linear_16365_54427)"/>
<g opacity="0.76">
<path d="M329.927 64.8999L330.227 73.2999L329.727 81.1999L329.427 73.0999L329.927 64.8999Z" fill="url(#paint30_linear_16365_54427)"/>
<path d="M321.027 64.5L321.227 72.9L320.827 80.9L320.527 72.7L321.027 64.5Z" fill="url(#paint31_linear_16365_54427)"/>
<path d="M310.527 63.8999L310.327 72.1999L309.427 80.1999L309.627 71.9999L310.527 63.8999Z" fill="url(#paint32_linear_16365_54427)"/>
<path d="M299.625 64.2L299.325 72.5999L298.425 80.5L298.625 72.3999L299.625 64.2Z" fill="url(#paint33_linear_16365_54427)"/>
<path d="M290.727 63.3L290.527 71.7L289.527 79.6L289.727 71.4L290.727 63.3Z" fill="url(#paint34_linear_16365_54427)"/>
<path d="M280.328 62L279.628 70.3L278.228 78.2L278.928 70.1L280.328 62Z" fill="url(#paint35_linear_16365_54427)"/>
<path d="M270.227 62L269.327 70.3L267.727 78.1L268.627 70L270.227 62Z" fill="url(#paint36_linear_16365_54427)"/>
<path d="M259.727 61.8L258.927 70.1L257.327 78L258.227 69.9L259.727 61.8Z" fill="url(#paint37_linear_16365_54427)"/>
<path d="M249.625 60.2L248.325 68.5L246.325 76.2L247.625 68.2L249.625 60.2Z" fill="url(#paint38_linear_16365_54427)"/>
<path d="M240.328 60.5L238.928 68.8L236.928 76.5L238.228 68.4L240.328 60.5Z" fill="url(#paint39_linear_16365_54427)"/>
<path d="M230.527 59.7L229.127 67.8999L227.027 75.5999L228.427 67.5999L230.527 59.7Z" fill="url(#paint40_linear_16365_54427)"/>
<path d="M218.926 58.5L217.126 66.7L214.726 74.3L216.426 66.3L218.926 58.5Z" fill="url(#paint41_linear_16365_54427)"/>
<path d="M210.625 58.2L208.825 66.3999L206.325 74L208.125 66L210.625 58.2Z" fill="url(#paint42_linear_16365_54427)"/>
<path d="M203.727 57.3L201.827 65.4L199.427 73L201.127 65.1L203.727 57.3Z" fill="url(#paint43_linear_16365_54427)"/>
<path d="M197.625 56.8999L195.125 64.8999L192.025 72.1999L194.425 64.4999L197.625 56.8999Z" fill="url(#paint44_linear_16365_54427)"/>
<path d="M192.727 56.7L189.827 64.5999L186.327 71.8L189.127 64.0999L192.727 56.7Z" fill="url(#paint45_linear_16365_54427)"/>
</g>
<g opacity="0.76">
<path d="M320.427 83.3L320.727 91.7L320.227 99.7L319.927 91.5L320.427 83.3Z" fill="url(#paint46_linear_16365_54427)"/>
<path d="M311.527 83L311.727 91.3L311.327 99.3L311.027 91.1L311.527 83Z" fill="url(#paint47_linear_16365_54427)"/>
<path d="M301.027 82.3L300.827 90.7L300.027 98.6L300.127 90.4L301.027 82.3Z" fill="url(#paint48_linear_16365_54427)"/>
<path d="M350.327 85.5L351.027 93.9L350.927 101.9L350.227 93.7L350.327 85.5Z" fill="url(#paint49_linear_16365_54427)"/>
<path d="M341.327 85.5999L342.027 93.8999L341.927 101.9L341.227 93.7999L341.327 85.5999Z" fill="url(#paint50_linear_16365_54427)"/>
<path d="M330.829 85.5L331.129 93.8L330.629 101.8L330.329 93.6L330.829 85.5Z" fill="url(#paint51_linear_16365_54427)"/>
<path d="M290.129 82.5999L289.929 90.9999L288.929 98.8999L289.129 90.7999L290.129 82.5999Z" fill="url(#paint52_linear_16365_54427)"/>
<path d="M281.227 81.7L281.027 90.0999L280.027 98L280.227 89.8L281.227 81.7Z" fill="url(#paint53_linear_16365_54427)"/>
<path d="M270.828 80.3999L270.128 88.7999L268.728 96.5999L269.428 88.4999L270.828 80.3999Z" fill="url(#paint54_linear_16365_54427)"/>
<path d="M260.727 80.3999L259.827 88.6999L258.327 96.4999L259.127 88.3999L260.727 80.3999Z" fill="url(#paint55_linear_16365_54427)"/>
<path d="M250.227 80.2L249.427 88.5999L247.827 96.3999L248.727 88.3L250.227 80.2Z" fill="url(#paint56_linear_16365_54427)"/>
<path d="M240.129 78.5999L238.829 86.8999L236.929 94.5999L238.129 86.5999L240.129 78.5999Z" fill="url(#paint57_linear_16365_54427)"/>
<path d="M230.828 79L229.428 87.2L227.428 94.9L228.728 86.9L230.828 79Z" fill="url(#paint58_linear_16365_54427)"/>
<path d="M221.027 78.0999L219.627 86.2999L217.527 94.0999L218.927 85.9999L221.027 78.0999Z" fill="url(#paint59_linear_16365_54427)"/>
<path d="M209.527 77L207.627 85.1L205.227 92.7L206.927 84.8L209.527 77Z" fill="url(#paint60_linear_16365_54427)"/>
<path d="M201.129 76.7L199.329 84.8L196.829 92.3999L198.629 84.3999L201.129 76.7Z" fill="url(#paint61_linear_16365_54427)"/>
<path d="M194.227 75.7L192.327 83.8999L189.927 91.3999L191.727 83.5L194.227 75.7Z" fill="url(#paint62_linear_16365_54427)"/>
<path d="M188.129 75.3L185.629 83.3L182.529 90.7L184.929 82.9L188.129 75.3Z" fill="url(#paint63_linear_16365_54427)"/>
<path d="M183.227 75.2L180.327 83L176.827 90.2L179.627 82.5L183.227 75.2Z" fill="url(#paint64_linear_16365_54427)"/>
</g>
<path d="M359.527 87.2001L359.327 81.3001L181.827 73.1001L179.927 75.6001L359.527 87.2001Z" fill="url(#paint65_linear_16365_54427)"/>
<path opacity="0.79" d="M157.827 106.8L166.327 107.1L167.327 107.2L179.427 107.6H180.327L190.627 108H191.527L201.727 108.3L202.627 108.4L212.327 108.7H213.227L223.627 109.1H224.527L235.027 109.5H235.827L245.727 109.8L246.527 109.9L257.027 110.2L257.927 110.3L268.527 110.6H269.327L280.827 111L281.727 111.1L292.127 111.4L293.027 111.5L303.527 111.8H304.327L314.527 112.2H315.327L325.927 112.6H326.827L335.827 112.9H336.627L346.727 113.3H347.527L356.527 113.6L357.327 113.7L366.427 114H367.227L371.327 114.1L376.027 114.3H376.827L383.227 114.5L379.227 100.2L374.527 99.8001H373.727L365.827 99.2001L365.027 99.1001L356.727 98.5001H355.927L346.927 97.8001H346.127L336.627 97.1001L335.827 97.0001L327.227 96.4001H326.427L316.127 95.6001H315.327L305.327 94.9001L304.527 94.8001L294.127 94.1001L293.327 94.0001L283.327 93.3001L282.527 93.2001L271.027 92.4001L270.227 92.3001L259.627 91.6001L258.827 91.5001L248.327 90.8001L247.527 90.7001L237.627 90.0001H236.827L227.527 89.3001L226.727 89.2001L216.327 88.5001L215.527 88.4001L206.627 87.8001L205.927 87.7001L195.627 87.0001L194.827 86.9001L185.427 86.3001L184.627 86.2001L174.527 85.5001L173.727 85.4001L169.127 85.1001L168.627 86.1001L157.827 106.8Z" fill="url(#paint66_linear_16365_54427)"/>
<path d="M365.627 99.0999L367.027 113.9L367.527 114L366.027 99.1999L365.627 99.0999Z" fill="url(#paint67_linear_16365_54427)"/>
<path d="M356.228 98.3V98.5L356.728 113.6L357.328 113.7L356.728 98.5V98.4L356.228 98.3Z" fill="url(#paint68_linear_16365_54427)"/>
<path d="M346.727 113.3H347.527L346.927 97.8H346.127L346.727 113.3Z" fill="url(#paint69_linear_16365_54427)"/>
<path d="M280.326 110.8L280.726 110.9L282.426 93.1999L282.026 93.0999L280.326 110.8Z" fill="url(#paint70_linear_16365_54427)"/>
<path d="M268.527 110.6H269.327L271.027 92.4L270.227 92.3L268.527 110.6Z" fill="url(#paint71_linear_16365_54427)"/>
<path d="M257.029 110.2L257.929 110.3L259.629 91.6L258.829 91.5L257.029 110.2Z" fill="url(#paint72_linear_16365_54427)"/>
<path d="M223.627 109.1H224.527L227.527 89.3L226.727 89.2L223.627 109.1Z" fill="url(#paint73_linear_16365_54427)"/>
<path d="M212.328 108.7H213.228L216.328 88.4999L215.528 88.3999L212.328 108.7Z" fill="url(#paint74_linear_16365_54427)"/>
<path d="M172.027 107.2L172.127 107.3L178.727 87.1L178.627 87L172.027 107.2Z" fill="url(#paint75_linear_16365_54427)"/>
<path d="M182.327 107.7L182.527 107.8L187.727 87.1999L187.527 87.0999L182.327 107.7Z" fill="url(#paint76_linear_16365_54427)"/>
<path d="M163.727 106.5L164.127 106.6L171.527 86.3L171.227 86.2L163.727 106.5Z" fill="url(#paint77_linear_16365_54427)"/>
<path d="M311.927 112.2L312.327 112.3L312.527 95.3L312.127 95.2L311.927 112.2Z" fill="url(#paint78_linear_16365_54427)"/>
<path d="M292.626 111.8L293.026 111.9L294.426 94.6V94.5L294.026 94.3V94.5L292.626 111.8Z" fill="url(#paint79_linear_16365_54427)"/>
<path d="M234.726 109L235.126 109.1L237.426 90.1L237.026 90L234.726 109Z" fill="url(#paint80_linear_16365_54427)"/>
<path d="M247.329 110.2H247.729L249.129 91.5V91.3999L248.729 91.2V91.3999L247.329 110.2Z" fill="url(#paint81_linear_16365_54427)"/>
<path d="M373.229 99.7L374.929 114.3H375.129L373.429 99.8L373.229 99.7Z" fill="url(#paint82_linear_16365_54427)"/>
<path d="M377.627 100.1L380.227 114.5H380.527L377.827 100.1H377.627Z" fill="url(#paint83_linear_16365_54427)"/>
<path opacity="0.62" d="M168.627 86L344.027 100.7L344.727 113.3L376.027 114.2L376.827 114.3L381.527 114.1L379.227 100.2L169.127 85L168.627 86Z" fill="#3198FE"/>
<path opacity="0.62" d="M385.324 133.2L383.224 116L156.824 108.4L156.124 109.7L348.024 120L348.124 137L385.324 133.2Z" fill="#26B3FA"/>
<path d="M0.725769 133.9C0.725769 133.9 13.6258 144.9 27.2258 156.6C40.7258 168.3 54.8258 180.6 57.1258 183.5C61.8258 189.3 65.7258 199.6 65.7258 199.6C65.7258 199.6 77.5258 199.7 96.5258 199.8C147.526 200 365.026 201.5 368.426 198.6C381.626 187.3 398.426 132.8 398.426 132.8L391.526 132.6L382.626 132.3L238.426 127.3C238.426 127.3 233.526 139.1 222.026 143.6C218.726 144.9 214.926 145.6 210.526 145.3C190.526 143.7 0.725769 133.9 0.725769 133.9Z" fill="url(#paint84_linear_16365_54427)"/>
<path d="M339.024 163L339.124 158C339.124 156.5 340.424 155.3 342.024 155.3L359.524 155.6C361.124 155.6 362.324 156.8 362.324 158.3L362.224 163.3C362.224 164.8 360.924 166 359.324 166L341.824 165.7C340.224 165.7 338.924 164.5 339.024 163ZM348.424 162.9L351.024 162.7C352.624 162.7 358.224 163.8 358.224 162.3L361.824 159.9C361.824 158.4 360.624 157.2 359.024 157.2L354.824 157.1L354.724 160.3L354.524 157.1L347.324 157C347.124 157 347.024 157 346.824 157L346.324 161.7L346.424 157.2C345.224 157.5 344.424 158.5 344.424 159.7L344.324 162.7C344.324 164.3 346.824 162.9 348.424 162.9Z" fill="#189ADD"/>
<path d="M361.523 161.2C361.523 165.2 341.123 165 340.723 164.3C340.323 163.6 339.623 161.4 339.823 161C340.023 160.6 361.523 160.2 361.523 160.2V161.2Z" fill="#C2E0FF"/>
<path d="M340.624 164.3C341.024 164.9 355.924 165.1 360.324 162.7C354.324 163.9 343.324 163.7 343.024 163.2C342.724 162.7 342.324 161.5 342.124 160.7C340.124 160.8 339.824 160.9 339.724 161C339.524 161.4 340.224 163.6 340.624 164.3Z" fill="#0D89C9"/>
<path d="M306.626 162.7L306.726 157.7C306.726 156.2 308.026 155 309.626 155L327.126 155.3C328.726 155.3 329.926 156.5 329.926 158L329.826 163C329.826 164.5 328.526 165.7 326.926 165.7L309.426 165.4C307.826 165.4 306.626 164.1 306.626 162.7ZM316.026 162.5L318.626 162.3C320.226 162.3 325.826 163.4 325.826 161.9L329.426 159.5C329.426 158 328.226 156.8 326.626 156.8L322.426 156.7L322.326 159.9L322.126 156.7L314.926 156.6C314.726 156.6 314.626 156.6 314.426 156.6L313.926 161.3L314.026 156.7C312.826 157 312.026 158 312.026 159.2L311.926 162.2C311.926 163.9 314.426 162.5 316.026 162.5Z" fill="#189ADD"/>
<path d="M329.125 160.8C329.125 164.8 308.725 164.6 308.325 163.9C307.925 163.2 307.225 161 307.425 160.6C307.625 160.2 329.125 159.8 329.125 159.8V160.8Z" fill="#C2E0FF"/>
<path d="M308.327 163.9C308.727 164.5 323.627 164.7 328.027 162.3C322.027 163.5 311.027 163.3 310.727 162.8C310.427 162.3 310.027 161.1 309.827 160.3C307.827 160.4 307.527 160.5 307.427 160.6C307.127 161 307.827 163.2 308.327 163.9Z" fill="#0D89C9"/>
<path d="M274.524 162.1L274.624 157.1C274.624 155.6 275.924 154.4 277.524 154.4L295.024 154.7C296.624 154.7 297.824 155.9 297.824 157.4L297.724 162.4C297.724 163.9 296.424 165.1 294.824 165.1L277.324 164.8C275.724 164.8 274.424 163.6 274.524 162.1ZM283.924 161.9L286.524 161.7C288.124 161.7 293.724 162.8 293.724 161.3L297.324 158.9C297.324 157.4 296.124 156.2 294.524 156.2L290.324 156.1L290.224 159.3L290.024 156.1L282.824 156C282.624 156 282.524 156 282.324 156L281.824 160.7L281.924 156.1C280.724 156.4 279.924 157.4 279.924 158.6L279.824 161.6C279.824 163.3 282.324 161.9 283.924 161.9Z" fill="#189ADD"/>
<path d="M297.023 160.2C297.023 164.2 276.623 164 276.223 163.3C275.823 162.6 275.123 160.4 275.323 160C275.523 159.6 297.023 159.2 297.023 159.2V160.2Z" fill="#C2E0FF"/>
<path d="M276.124 163.3C276.524 163.9 291.424 164.1 295.824 161.7C289.824 162.9 278.824 162.7 278.524 162.2C278.224 161.7 277.824 160.5 277.624 159.7C275.624 159.8 275.324 159.9 275.224 160C275.024 160.4 275.724 162.6 276.124 163.3Z" fill="#0D89C9"/>
<path d="M242.126 161.7L242.226 156.7C242.226 155.2 243.526 154 245.126 154L262.626 154.3C264.226 154.3 265.426 155.5 265.426 157L265.326 162C265.326 163.5 264.026 164.7 262.426 164.7L244.926 164.4C243.326 164.4 242.126 163.2 242.126 161.7ZM251.526 161.6L254.126 161.4C255.726 161.4 261.326 162.5 261.326 161L264.926 158.6C264.926 157.1 263.726 155.9 262.126 155.9L257.926 155.8L257.826 159L257.626 155.8L250.426 155.7C250.226 155.7 250.126 155.7 249.926 155.7L249.426 160.4L249.526 155.8C248.326 156.1 247.526 157.1 247.526 158.3L247.426 161.3C247.426 162.9 249.926 161.6 251.526 161.6Z" fill="#189ADD"/>
<path d="M264.625 159.9C264.625 163.9 244.225 163.7 243.825 163C243.425 162.3 242.725 160.1 242.925 159.7C243.125 159.3 264.625 158.9 264.625 158.9V159.9Z" fill="#C2E0FF"/>
<path d="M243.827 162.9C244.227 163.5 259.127 163.7 263.527 161.3C257.527 162.5 246.527 162.3 246.227 161.8C245.927 161.3 245.527 160.1 245.327 159.3C243.327 159.4 243.027 159.5 242.927 159.6C242.627 160.1 243.327 162.3 243.827 162.9Z" fill="#0D89C9"/>
<path opacity="0.25" d="M360.627 173.6C361.527 173.6 362.427 173.2 363.027 172.6C363.727 171.9 364.127 171 364.127 170.1L367.027 153.7C367.027 151.7 365.527 150.1 363.527 150.1L242.727 147.9C241.727 147.9 240.827 148.2 240.227 148.9C239.527 149.6 239.127 150.5 239.127 151.4L238.827 167.7C238.827 168.7 239.127 169.6 239.827 170.2C240.527 170.9 241.427 171.3 242.327 171.3L360.527 173.6C360.527 173.6 360.627 173.6 360.627 173.6ZM242.627 148.4H242.727L363.527 150.6C365.227 150.6 366.627 152.1 366.627 153.8L363.927 170.4C363.927 171.2 363.527 172 362.927 172.6C362.327 173.2 361.527 173.5 360.727 173.5L242.327 171.3C241.527 171.3 240.727 170.9 240.127 170.3C239.527 169.7 239.227 168.6 239.327 167.8L239.627 151.5C239.627 150.7 240.027 149.9 240.627 149.3C241.127 148.7 241.827 148.4 242.627 148.4Z" fill="#0F85FA"/>
<path d="M221.926 143.4C232.826 139.3 236.926 132.7 240.726 130C244.526 127.3 395.926 132.9 395.926 132.9L391.426 132.5L238.326 127.1C238.326 127.1 233.426 138.8 221.926 143.4Z" fill="#0D9BF0"/>
<path opacity="0.37" d="M65.4258 180.8C68.2258 181 239.226 194.6 315.526 194.2C345.726 192.8 366.026 193.6 369.426 190.7C382.626 179.4 398.426 132.6 398.426 132.6L391.526 132.4L382.626 132.1L336.626 131.4C343.026 131.9 353.226 132.6 354.026 137.1C357.226 155.9 347.126 182.2 340.626 184.8C329.426 189.4 68.9258 181 65.4258 180.8Z" fill="#A4C9F9"/>
<path opacity="0.5" d="M51.0241 152.5C43.4241 154.5 55.6241 172 62.1241 169.3C68.7241 166.6 58.6241 150.5 51.0241 152.5Z" fill="#A4C9F9"/>
<path opacity="0.5" d="M58.8255 160.2C56.1255 160.7 59.9255 167.2 62.3255 166.5C64.6255 165.7 61.5255 159.7 58.8255 160.2Z" fill="#A4C9F9"/>
<path opacity="0.5" d="M61.625 169.5C52.625 168.3 50.725 155.6 56.325 154.1C56.525 154 56.825 154 57.025 154C55.125 152.7 53.025 152 51.025 152.5C43.625 154.4 54.925 170.9 61.625 169.5Z" fill="#A4C9F9"/>
<path d="M195.926 162.7C195.926 164 196.626 165.1 197.426 165.1C198.226 165.1 198.926 164 198.926 162.7C198.926 161.4 198.226 160.3 197.426 160.3C196.626 160.3 195.926 161.4 195.926 162.7Z" fill="url(#paint85_linear_16365_54427)"/>
<path d="M190.027 162.6C190.027 163.9 190.727 165 191.527 165C192.327 165 193.027 163.9 193.027 162.6C193.027 161.3 192.327 160.2 191.527 160.2C190.727 160.3 190.027 161.3 190.027 162.6Z" fill="url(#paint86_linear_16365_54427)"/>
<path d="M184.125 162.3C184.125 163.6 184.825 164.7 185.625 164.7C186.425 164.7 187.125 163.6 187.125 162.3C187.125 161 186.425 159.9 185.625 159.9C184.825 159.9 184.125 161 184.125 162.3Z" fill="url(#paint87_linear_16365_54427)"/>
<path d="M178.125 161.9C178.125 163.2 178.825 164.3 179.625 164.3C180.425 164.3 181.125 163.2 181.125 161.9C181.125 160.6 180.425 159.5 179.625 159.5C178.825 159.6 178.125 160.6 178.125 161.9Z" fill="url(#paint88_linear_16365_54427)"/>
<path d="M172.027 161.7C172.027 163 172.727 164.1 173.527 164.1C174.327 164.1 175.027 163 175.027 161.7C175.027 160.4 174.327 159.3 173.527 159.3C172.727 159.3 172.027 160.4 172.027 161.7Z" fill="url(#paint89_linear_16365_54427)"/>
<path d="M166.125 161.4C166.125 162.7 166.825 163.8 167.625 163.8C168.425 163.8 169.125 162.7 169.125 161.4C169.125 160.1 168.425 159 167.625 159C166.825 159 166.125 160.1 166.125 161.4Z" fill="url(#paint90_linear_16365_54427)"/>
<path d="M160.227 161.1C160.227 162.4 160.927 163.5 161.727 163.5C162.527 163.5 163.227 162.4 163.227 161.1C163.227 159.8 162.527 158.7 161.727 158.7C160.927 158.7 160.227 159.8 160.227 161.1Z" fill="url(#paint91_linear_16365_54427)"/>
<path d="M154.027 160.8C154.027 162.1 154.727 163.2 155.527 163.2C156.327 163.2 157.027 162.1 157.027 160.8C157.027 159.5 156.327 158.4 155.527 158.4C154.727 158.5 154.027 159.5 154.027 160.8Z" fill="url(#paint92_linear_16365_54427)"/>
<path d="M147.027 160.4C147.027 161.7 147.727 162.8 148.527 162.8C149.327 162.8 150.027 161.7 150.027 160.4C150.027 159.1 149.327 158 148.527 158C147.727 158 147.027 159.1 147.027 160.4Z" fill="url(#paint93_linear_16365_54427)"/>
<path d="M141.227 160.4C141.227 161.7 141.927 162.8 142.727 162.8C143.527 162.8 144.227 161.7 144.227 160.4C144.227 159.1 143.527 158 142.727 158C141.927 158 141.227 159 141.227 160.4Z" fill="url(#paint94_linear_16365_54427)"/>
<path d="M135.227 160C135.227 161.3 135.927 162.4 136.727 162.4C137.527 162.4 138.227 161.3 138.227 160C138.227 158.7 137.527 157.6 136.727 157.6C135.927 157.6 135.227 158.7 135.227 160Z" fill="url(#paint95_linear_16365_54427)"/>
<path d="M129.328 159.7C129.328 161 130.028 162.1 130.828 162.1C131.628 162.1 132.328 161 132.328 159.7C132.328 158.4 131.628 157.3 130.828 157.3C130.028 157.3 129.328 158.4 129.328 159.7Z" fill="url(#paint96_linear_16365_54427)"/>
<path d="M123.129 159.4C123.129 160.7 123.829 161.8 124.629 161.8C125.429 161.8 126.129 160.7 126.129 159.4C126.129 158.1 125.429 157 124.629 157C123.829 157.1 123.129 158.1 123.129 159.4Z" fill="url(#paint97_linear_16365_54427)"/>
<path d="M117.227 159.1C117.227 160.4 117.927 161.5 118.727 161.5C119.527 161.5 120.227 160.4 120.227 159.1C120.227 157.8 119.527 156.7 118.727 156.7C117.927 156.8 117.327 157.8 117.227 159.1Z" fill="url(#paint98_linear_16365_54427)"/>
<path d="M111.328 158.8C111.328 160.1 112.028 161.2 112.828 161.2C113.628 161.2 114.328 160.1 114.328 158.8C114.328 157.5 113.628 156.4 112.828 156.4C112.028 156.4 111.328 157.5 111.328 158.8Z" fill="url(#paint99_linear_16365_54427)"/>
<path d="M105.129 158.6C105.129 159.9 105.829 161 106.629 161C107.429 161 108.129 159.9 108.129 158.6C108.129 157.3 107.429 156.2 106.629 156.2C105.829 156.2 105.229 157.2 105.129 158.6Z" fill="url(#paint100_linear_16365_54427)"/>
<path opacity="0.26" d="M391.125 143.4C391.125 143.4 378.125 175.6 365.225 189C380.525 163.1 379.925 142.7 379.925 142.7L391.125 143.4Z" fill="#A4C9F9"/>
<defs>
<linearGradient id="paint0_linear_16365_54427" x1="235.351" y1="45.4905" x2="219.849" y2="45.3722" gradientUnits="userSpaceOnUse">
<stop stop-color="#23ACF8"/>
<stop offset="1" stop-color="#60C3FF"/>
</linearGradient>
<linearGradient id="paint1_linear_16365_54427" x1="235.03" y1="42.7977" x2="228.704" y2="42.703" gradientUnits="userSpaceOnUse">
<stop stop-color="#23ACF8"/>
<stop offset="1" stop-color="#60C3FF"/>
</linearGradient>
<linearGradient id="paint2_linear_16365_54427" x1="235.409" y1="47.9994" x2="221.787" y2="47.9189" gradientUnits="userSpaceOnUse">
<stop stop-color="#23ACF8"/>
<stop offset="1" stop-color="#60C3FF"/>
</linearGradient>
<linearGradient id="paint3_linear_16365_54427" x1="288.615" y1="22.714" x2="284.967" y2="22.709" gradientUnits="userSpaceOnUse">
<stop stop-color="#23ACF8"/>
<stop offset="1" stop-color="#60C3FF"/>
</linearGradient>
<linearGradient id="paint4_linear_16365_54427" x1="300.754" y1="43.329" x2="272.242" y2="42.2163" gradientUnits="userSpaceOnUse">
<stop stop-color="#25B1FF"/>
<stop offset="1" stop-color="#60C3FF"/>
</linearGradient>
<linearGradient id="paint5_linear_16365_54427" x1="301.034" y1="43.329" x2="281.668" y2="42.8161" gradientUnits="userSpaceOnUse">
<stop stop-color="#23ACF8"/>
<stop offset="1" stop-color="#60C3FF"/>
</linearGradient>
<linearGradient id="paint6_linear_16365_54427" x1="309.577" y1="56.5496" x2="245.752" y2="53.7099" gradientUnits="userSpaceOnUse">
<stop stop-color="#23ACF8"/>
<stop offset="1" stop-color="#60C3FF"/>
</linearGradient>
<linearGradient id="paint7_linear_16365_54427" x1="206.02" y1="29.7954" x2="275.832" y2="59.7636" gradientUnits="userSpaceOnUse">
<stop stop-color="#3A9BFC"/>
<stop offset="1" stop-color="#66B3FF"/>
</linearGradient>
<linearGradient id="paint8_linear_16365_54427" x1="98.9956" y1="25.752" x2="467.791" y2="77.1786" gradientUnits="userSpaceOnUse">
<stop stop-color="#26B3FA"/>
<stop offset="1" stop-color="#22A8F8"/>
</linearGradient>
<linearGradient id="paint9_linear_16365_54427" x1="194.083" y1="43.8526" x2="401.642" y2="85.4437" gradientUnits="userSpaceOnUse">
<stop stop-color="#26B3FA"/>
<stop offset="1" stop-color="#22A8F8"/>
</linearGradient>
<linearGradient id="paint10_linear_16365_54427" x1="222.571" y1="114.2" x2="263.251" y2="131.776" gradientUnits="userSpaceOnUse">
<stop stop-color="#22A8F8"/>
<stop offset="1" stop-color="#22A8F8"/>
</linearGradient>
<linearGradient id="paint11_linear_16365_54427" x1="367.646" y1="136.037" x2="364.941" y2="136.131" gradientUnits="userSpaceOnUse">
<stop stop-color="#CFEEFA"/>
<stop offset="1" stop-color="white"/>
</linearGradient>
<linearGradient id="paint12_linear_16365_54427" x1="376.885" y1="136.2" x2="375.394" y2="136.327" gradientUnits="userSpaceOnUse">
<stop stop-color="#CFEEFA"/>
<stop offset="1" stop-color="white"/>
</linearGradient>
<linearGradient id="paint13_linear_16365_54427" x1="384.034" y1="136.444" x2="382.597" y2="136.636" gradientUnits="userSpaceOnUse">
<stop stop-color="#CFEEFA"/>
<stop offset="1" stop-color="white"/>
</linearGradient>
<linearGradient id="paint14_linear_16365_54427" x1="153.782" y1="127.766" x2="150.316" y2="126.782" gradientUnits="userSpaceOnUse">
<stop stop-color="#CFEEFA"/>
<stop offset="1" stop-color="white"/>
</linearGradient>
<linearGradient id="paint15_linear_16365_54427" x1="160.815" y1="128.923" x2="153.889" y2="127.613" gradientUnits="userSpaceOnUse">
<stop stop-color="#CFEEFA"/>
<stop offset="1" stop-color="white"/>
</linearGradient>
<linearGradient id="paint16_linear_16365_54427" x1="166.452" y1="128.599" x2="163.458" y2="127.899" gradientUnits="userSpaceOnUse">
<stop stop-color="#CFEEFA"/>
<stop offset="1" stop-color="white"/>
</linearGradient>
<linearGradient id="paint17_linear_16365_54427" x1="178.892" y1="129.835" x2="172.107" y2="129.113" gradientUnits="userSpaceOnUse">
<stop stop-color="#CFEEFA"/>
<stop offset="1" stop-color="white"/>
</linearGradient>
<linearGradient id="paint18_linear_16365_54427" x1="189.556" y1="130.251" x2="184.61" y2="129.866" gradientUnits="userSpaceOnUse">
<stop stop-color="#CFEEFA"/>
<stop offset="1" stop-color="white"/>
</linearGradient>
<linearGradient id="paint19_linear_16365_54427" x1="198.363" y1="130.549" x2="195.238" y2="130.292" gradientUnits="userSpaceOnUse">
<stop stop-color="#CFEEFA"/>
<stop offset="1" stop-color="white"/>
</linearGradient>
<linearGradient id="paint20_linear_16365_54427" x1="231.526" y1="131.437" x2="228.943" y2="131.325" gradientUnits="userSpaceOnUse">
<stop stop-color="#CFEEFA"/>
<stop offset="1" stop-color="white"/>
</linearGradient>
<linearGradient id="paint21_linear_16365_54427" x1="244.325" y1="131.517" x2="240.208" y2="131.571" gradientUnits="userSpaceOnUse">
<stop stop-color="#CFEEFA"/>
<stop offset="1" stop-color="white"/>
</linearGradient>
<linearGradient id="paint22_linear_16365_54427" x1="266.857" y1="132.434" x2="261.69" y2="132.613" gradientUnits="userSpaceOnUse">
<stop stop-color="#CFEEFA"/>
<stop offset="1" stop-color="white"/>
</linearGradient>
<linearGradient id="paint23_linear_16365_54427" x1="276.682" y1="132.604" x2="274.003" y2="132.66" gradientUnits="userSpaceOnUse">
<stop stop-color="#CFEEFA"/>
<stop offset="1" stop-color="white"/>
</linearGradient>
<linearGradient id="paint24_linear_16365_54427" x1="287.824" y1="133.21" x2="284.118" y2="133.338" gradientUnits="userSpaceOnUse">
<stop stop-color="#CFEEFA"/>
<stop offset="1" stop-color="white"/>
</linearGradient>
<linearGradient id="paint25_linear_16365_54427" x1="321.27" y1="134.323" x2="319.085" y2="134.398" gradientUnits="userSpaceOnUse">
<stop stop-color="#CFEEFA"/>
<stop offset="1" stop-color="white"/>
</linearGradient>
<linearGradient id="paint26_linear_16365_54427" x1="332.333" y1="135.029" x2="330.667" y2="135.087" gradientUnits="userSpaceOnUse">
<stop stop-color="#CFEEFA"/>
<stop offset="1" stop-color="white"/>
</linearGradient>
<linearGradient id="paint27_linear_16365_54427" x1="130.796" y1="107.485" x2="120.44" y2="157.062" gradientUnits="userSpaceOnUse">
<stop stop-color="#77CDFD"/>
<stop offset="1" stop-color="#3FB2FA"/>
</linearGradient>
<linearGradient id="paint28_linear_16365_54427" x1="211.8" y1="46.1841" x2="398.086" y2="81.0607" gradientUnits="userSpaceOnUse">
<stop stop-color="#26B3FA"/>
<stop offset="1" stop-color="#22A8F8"/>
</linearGradient>
<linearGradient id="paint29_linear_16365_54427" x1="338.968" y1="59.9734" x2="246.564" y2="49.2565" gradientUnits="userSpaceOnUse">
<stop stop-color="#23ACF8"/>
<stop offset="1" stop-color="#60C3FF"/>
</linearGradient>
<linearGradient id="paint30_linear_16365_54427" x1="333.554" y1="73.2977" x2="239.806" y2="67.8375" gradientUnits="userSpaceOnUse">
<stop stop-color="#CFEEFA"/>
<stop offset="1" stop-color="white"/>
</linearGradient>
<linearGradient id="paint31_linear_16365_54427" x1="333.546" y1="73.43" x2="239.799" y2="67.9698" gradientUnits="userSpaceOnUse">
<stop stop-color="#CFEEFA"/>
<stop offset="1" stop-color="white"/>
</linearGradient>
<linearGradient id="paint32_linear_16365_54427" x1="333.551" y1="73.3976" x2="239.794" y2="67.9369" gradientUnits="userSpaceOnUse">
<stop stop-color="#CFEEFA"/>
<stop offset="1" stop-color="white"/>
</linearGradient>
<linearGradient id="paint33_linear_16365_54427" x1="333.491" y1="74.3697" x2="239.742" y2="68.9093" gradientUnits="userSpaceOnUse">
<stop stop-color="#CFEEFA"/>
<stop offset="1" stop-color="white"/>
</linearGradient>
<linearGradient id="paint34_linear_16365_54427" x1="333.516" y1="73.9563" x2="239.768" y2="68.4959" gradientUnits="userSpaceOnUse">
<stop stop-color="#CFEEFA"/>
<stop offset="1" stop-color="white"/>
</linearGradient>
<linearGradient id="paint35_linear_16365_54427" x1="333.54" y1="73.2563" x2="239.823" y2="67.7979" gradientUnits="userSpaceOnUse">
<stop stop-color="#CFEEFA"/>
<stop offset="1" stop-color="white"/>
</linearGradient>
<linearGradient id="paint36_linear_16365_54427" x1="333.51" y1="73.795" x2="239.784" y2="68.336" gradientUnits="userSpaceOnUse">
<stop stop-color="#CFEEFA"/>
<stop offset="1" stop-color="white"/>
</linearGradient>
<linearGradient id="paint37_linear_16365_54427" x1="333.476" y1="74.2613" x2="239.756" y2="68.8027" gradientUnits="userSpaceOnUse">
<stop stop-color="#CFEEFA"/>
<stop offset="1" stop-color="white"/>
</linearGradient>
<linearGradient id="paint38_linear_16365_54427" x1="333.546" y1="73.2014" x2="239.812" y2="67.7419" gradientUnits="userSpaceOnUse">
<stop stop-color="#CFEEFA"/>
<stop offset="1" stop-color="white"/>
</linearGradient>
<linearGradient id="paint39_linear_16365_54427" x1="333.497" y1="74.0288" x2="239.765" y2="68.5695" gradientUnits="userSpaceOnUse">
<stop stop-color="#CFEEFA"/>
<stop offset="1" stop-color="white"/>
</linearGradient>
<linearGradient id="paint40_linear_16365_54427" x1="333.511" y1="73.7509" x2="239.779" y2="68.2915" gradientUnits="userSpaceOnUse">
<stop stop-color="#CFEEFA"/>
<stop offset="1" stop-color="white"/>
</linearGradient>
<linearGradient id="paint41_linear_16365_54427" x1="333.549" y1="73.2099" x2="239.809" y2="67.7501" gradientUnits="userSpaceOnUse">
<stop stop-color="#CFEEFA"/>
<stop offset="1" stop-color="white"/>
</linearGradient>
<linearGradient id="paint42_linear_16365_54427" x1="333.534" y1="73.3868" x2="239.797" y2="67.9272" gradientUnits="userSpaceOnUse">
<stop stop-color="#CFEEFA"/>
<stop offset="1" stop-color="white"/>
</linearGradient>
<linearGradient id="paint43_linear_16365_54427" x1="333.566" y1="72.8293" x2="239.829" y2="67.3697" gradientUnits="userSpaceOnUse">
<stop stop-color="#CFEEFA"/>
<stop offset="1" stop-color="white"/>
</linearGradient>
<linearGradient id="paint44_linear_16365_54427" x1="333.579" y1="72.6552" x2="239.839" y2="67.1955" gradientUnits="userSpaceOnUse">
<stop stop-color="#CFEEFA"/>
<stop offset="1" stop-color="white"/>
</linearGradient>
<linearGradient id="paint45_linear_16365_54427" x1="333.583" y1="72.6466" x2="239.841" y2="67.1867" gradientUnits="userSpaceOnUse">
<stop stop-color="#CFEEFA"/>
<stop offset="1" stop-color="white"/>
</linearGradient>
<linearGradient id="paint46_linear_16365_54427" x1="324.06" y1="91.7219" x2="230.312" y2="86.2617" gradientUnits="userSpaceOnUse">
<stop stop-color="#CFEEFA"/>
<stop offset="1" stop-color="white"/>
</linearGradient>
<linearGradient id="paint47_linear_16365_54427" x1="324.052" y1="91.854" x2="230.305" y2="86.3938" gradientUnits="userSpaceOnUse">
<stop stop-color="#CFEEFA"/>
<stop offset="1" stop-color="white"/>
</linearGradient>
<linearGradient id="paint48_linear_16365_54427" x1="324.054" y1="91.8217" x2="230.31" y2="86.3616" gradientUnits="userSpaceOnUse">
<stop stop-color="#CFEEFA"/>
<stop offset="1" stop-color="white"/>
</linearGradient>
<linearGradient id="paint49_linear_16365_54427" x1="354.336" y1="93.7295" x2="260.433" y2="92.8855" gradientUnits="userSpaceOnUse">
<stop stop-color="#CFEEFA"/>
<stop offset="1" stop-color="white"/>
</linearGradient>
<linearGradient id="paint50_linear_16365_54427" x1="354.334" y1="93.8613" x2="260.432" y2="93.0173" gradientUnits="userSpaceOnUse">
<stop stop-color="#CFEEFA"/>
<stop offset="1" stop-color="white"/>
</linearGradient>
<linearGradient id="paint51_linear_16365_54427" x1="354.338" y1="93.8285" x2="260.429" y2="92.9845" gradientUnits="userSpaceOnUse">
<stop stop-color="#CFEEFA"/>
<stop offset="1" stop-color="white"/>
</linearGradient>
<linearGradient id="paint52_linear_16365_54427" x1="324" y1="92.7937" x2="230.252" y2="87.3334" gradientUnits="userSpaceOnUse">
<stop stop-color="#CFEEFA"/>
<stop offset="1" stop-color="white"/>
</linearGradient>
<linearGradient id="paint53_linear_16365_54427" x1="324.022" y1="92.3802" x2="230.274" y2="86.92" gradientUnits="userSpaceOnUse">
<stop stop-color="#CFEEFA"/>
<stop offset="1" stop-color="white"/>
</linearGradient>
<linearGradient id="paint54_linear_16365_54427" x1="324.047" y1="91.6803" x2="230.329" y2="86.2219" gradientUnits="userSpaceOnUse">
<stop stop-color="#CFEEFA"/>
<stop offset="1" stop-color="white"/>
</linearGradient>
<linearGradient id="paint55_linear_16365_54427" x1="324.016" y1="92.2189" x2="230.29" y2="86.7599" gradientUnits="userSpaceOnUse">
<stop stop-color="#CFEEFA"/>
<stop offset="1" stop-color="white"/>
</linearGradient>
<linearGradient id="paint56_linear_16365_54427" x1="323.987" y1="92.6856" x2="230.261" y2="87.2266" gradientUnits="userSpaceOnUse">
<stop stop-color="#CFEEFA"/>
<stop offset="1" stop-color="white"/>
</linearGradient>
<linearGradient id="paint57_linear_16365_54427" x1="324.056" y1="91.6255" x2="230.322" y2="86.166" gradientUnits="userSpaceOnUse">
<stop stop-color="#CFEEFA"/>
<stop offset="1" stop-color="white"/>
</linearGradient>
<linearGradient id="paint58_linear_16365_54427" x1="324.007" y1="92.453" x2="230.271" y2="86.9936" gradientUnits="userSpaceOnUse">
<stop stop-color="#CFEEFA"/>
<stop offset="1" stop-color="white"/>
</linearGradient>
<linearGradient id="paint59_linear_16365_54427" x1="324.021" y1="92.175" x2="230.286" y2="86.7155" gradientUnits="userSpaceOnUse">
<stop stop-color="#CFEEFA"/>
<stop offset="1" stop-color="white"/>
</linearGradient>
<linearGradient id="paint60_linear_16365_54427" x1="324.053" y1="91.6338" x2="230.316" y2="86.1742" gradientUnits="userSpaceOnUse">
<stop stop-color="#CFEEFA"/>
<stop offset="1" stop-color="white"/>
</linearGradient>
<linearGradient id="paint61_linear_16365_54427" x1="324.047" y1="91.8112" x2="230.307" y2="86.3514" gradientUnits="userSpaceOnUse">
<stop stop-color="#CFEEFA"/>
<stop offset="1" stop-color="white"/>
</linearGradient>
<linearGradient id="paint62_linear_16365_54427" x1="324.072" y1="91.2533" x2="230.335" y2="85.7937" gradientUnits="userSpaceOnUse">
<stop stop-color="#CFEEFA"/>
<stop offset="1" stop-color="white"/>
</linearGradient>
<linearGradient id="paint63_linear_16365_54427" x1="324.089" y1="91.0795" x2="230.349" y2="85.6196" gradientUnits="userSpaceOnUse">
<stop stop-color="#CFEEFA"/>
<stop offset="1" stop-color="white"/>
</linearGradient>
<linearGradient id="paint64_linear_16365_54427" x1="324.089" y1="91.0706" x2="230.347" y2="85.6107" gradientUnits="userSpaceOnUse">
<stop stop-color="#CFEEFA"/>
<stop offset="1" stop-color="white"/>
</linearGradient>
<linearGradient id="paint65_linear_16365_54427" x1="356.405" y1="80.6714" x2="255.376" y2="69.044" gradientUnits="userSpaceOnUse">
<stop stop-color="#23ACF8"/>
<stop offset="1" stop-color="#60C3FF"/>
</linearGradient>
<linearGradient id="paint66_linear_16365_54427" x1="186.501" y1="76.4189" x2="417.58" y2="152.69" gradientUnits="userSpaceOnUse">
<stop stop-color="#26B3FA"/>
<stop offset="1" stop-color="#22A8F8"/>
</linearGradient>
<linearGradient id="paint67_linear_16365_54427" x1="366.989" y1="106.517" x2="366.131" y2="106.577" gradientUnits="userSpaceOnUse">
<stop stop-color="#CFEEFA"/>
<stop offset="1" stop-color="white"/>
</linearGradient>
<linearGradient id="paint68_linear_16365_54427" x1="357.103" y1="105.957" x2="356.45" y2="105.98" gradientUnits="userSpaceOnUse">
<stop stop-color="#CFEEFA"/>
<stop offset="1" stop-color="white"/>
</linearGradient>
<linearGradient id="paint69_linear_16365_54427" x1="347.283" y1="105.537" x2="346.426" y2="105.566" gradientUnits="userSpaceOnUse">
<stop stop-color="#CFEEFA"/>
<stop offset="1" stop-color="white"/>
</linearGradient>
<linearGradient id="paint70_linear_16365_54427" x1="282.14" y1="102.021" x2="280.561" y2="101.971" gradientUnits="userSpaceOnUse">
<stop stop-color="#CFEEFA"/>
<stop offset="1" stop-color="white"/>
</linearGradient>
<linearGradient id="paint71_linear_16365_54427" x1="271.373" y1="101.443" x2="268.191" y2="101.553" gradientUnits="userSpaceOnUse">
<stop stop-color="#CFEEFA"/>
<stop offset="1" stop-color="white"/>
</linearGradient>
<linearGradient id="paint72_linear_16365_54427" x1="259.963" y1="100.838" x2="256.724" y2="100.95" gradientUnits="userSpaceOnUse">
<stop stop-color="#CFEEFA"/>
<stop offset="1" stop-color="white"/>
</linearGradient>
<linearGradient id="paint73_linear_16365_54427" x1="227.836" y1="99.0934" x2="223.295" y2="99.2506" gradientUnits="userSpaceOnUse">
<stop stop-color="#CFEEFA"/>
<stop offset="1" stop-color="white"/>
</linearGradient>
<linearGradient id="paint74_linear_16365_54427" x1="216.648" y1="98.4989" x2="212.024" y2="98.659" gradientUnits="userSpaceOnUse">
<stop stop-color="#CFEEFA"/>
<stop offset="1" stop-color="white"/>
</linearGradient>
<linearGradient id="paint75_linear_16365_54427" x1="176.071" y1="97.3376" x2="174.661" y2="96.9703" gradientUnits="userSpaceOnUse">
<stop stop-color="#CFEEFA"/>
<stop offset="1" stop-color="white"/>
</linearGradient>
<linearGradient id="paint76_linear_16365_54427" x1="185.734" y1="97.5695" x2="184.302" y2="97.294" gradientUnits="userSpaceOnUse">
<stop stop-color="#CFEEFA"/>
<stop offset="1" stop-color="white"/>
</linearGradient>
<linearGradient id="paint77_linear_16365_54427" x1="169.277" y1="96.7485" x2="166.021" y2="96.0436" gradientUnits="userSpaceOnUse">
<stop stop-color="#CFEEFA"/>
<stop offset="1" stop-color="white"/>
</linearGradient>
<linearGradient id="paint78_linear_16365_54427" x1="312.809" y1="103.738" x2="311.603" y2="103.78" gradientUnits="userSpaceOnUse">
<stop stop-color="#CFEEFA"/>
<stop offset="1" stop-color="white"/>
</linearGradient>
<linearGradient id="paint79_linear_16365_54427" x1="294.167" y1="103.151" x2="292.872" y2="103.11" gradientUnits="userSpaceOnUse">
<stop stop-color="#CFEEFA"/>
<stop offset="1" stop-color="white"/>
</linearGradient>
<linearGradient id="paint80_linear_16365_54427" x1="236.846" y1="99.5907" x2="235.268" y2="99.5" gradientUnits="userSpaceOnUse">
<stop stop-color="#CFEEFA"/>
<stop offset="1" stop-color="white"/>
</linearGradient>
<linearGradient id="paint81_linear_16365_54427" x1="248.874" y1="100.76" x2="247.58" y2="100.72" gradientUnits="userSpaceOnUse">
<stop stop-color="#CFEEFA"/>
<stop offset="1" stop-color="white"/>
</linearGradient>
<linearGradient id="paint82_linear_16365_54427" x1="374.533" y1="106.987" x2="373.802" y2="107.047" gradientUnits="userSpaceOnUse">
<stop stop-color="#CFEEFA"/>
<stop offset="1" stop-color="white"/>
</linearGradient>
<linearGradient id="paint83_linear_16365_54427" x1="379.453" y1="107.229" x2="378.626" y2="107.346" gradientUnits="userSpaceOnUse">
<stop stop-color="#CFEEFA"/>
<stop offset="1" stop-color="white"/>
</linearGradient>
<linearGradient id="paint84_linear_16365_54427" x1="199.049" y1="147.181" x2="197.886" y2="180.653" gradientUnits="userSpaceOnUse">
<stop stop-color="#26B3FA"/>
<stop offset="1" stop-color="#26B3FA"/>
</linearGradient>
<linearGradient id="paint85_linear_16365_54427" x1="197.702" y1="159.728" x2="194.727" y2="166.1" gradientUnits="userSpaceOnUse">
<stop stop-color="#C2E0FF"/>
<stop offset="1" stop-color="#0F85FA"/>
</linearGradient>
<linearGradient id="paint86_linear_16365_54427" x1="191.804" y1="159.628" x2="188.829" y2="166" gradientUnits="userSpaceOnUse">
<stop stop-color="#C2E0FF"/>
<stop offset="1" stop-color="#0F85FA"/>
</linearGradient>
<linearGradient id="paint87_linear_16365_54427" x1="185.901" y1="159.328" x2="182.926" y2="165.7" gradientUnits="userSpaceOnUse">
<stop stop-color="#C2E0FF"/>
<stop offset="1" stop-color="#0F85FA"/>
</linearGradient>
<linearGradient id="paint88_linear_16365_54427" x1="179.901" y1="158.928" x2="176.926" y2="165.3" gradientUnits="userSpaceOnUse">
<stop stop-color="#C2E0FF"/>
<stop offset="1" stop-color="#0F85FA"/>
</linearGradient>
<linearGradient id="paint89_linear_16365_54427" x1="173.804" y1="158.728" x2="170.829" y2="165.1" gradientUnits="userSpaceOnUse">
<stop stop-color="#C2E0FF"/>
<stop offset="1" stop-color="#0F85FA"/>
</linearGradient>
<linearGradient id="paint90_linear_16365_54427" x1="167.901" y1="158.428" x2="164.926" y2="164.8" gradientUnits="userSpaceOnUse">
<stop stop-color="#C2E0FF"/>
<stop offset="1" stop-color="#0F85FA"/>
</linearGradient>
<linearGradient id="paint91_linear_16365_54427" x1="162.003" y1="158.128" x2="159.028" y2="164.5" gradientUnits="userSpaceOnUse">
<stop stop-color="#C2E0FF"/>
<stop offset="1" stop-color="#0F85FA"/>
</linearGradient>
<linearGradient id="paint92_linear_16365_54427" x1="155.804" y1="157.828" x2="152.829" y2="164.2" gradientUnits="userSpaceOnUse">
<stop stop-color="#C2E0FF"/>
<stop offset="1" stop-color="#0F85FA"/>
</linearGradient>
<linearGradient id="paint93_linear_16365_54427" x1="148.804" y1="157.428" x2="143.817" y2="158.308" gradientUnits="userSpaceOnUse">
<stop stop-color="#C2E0FF"/>
<stop offset="1" stop-color="#0F85FA"/>
</linearGradient>
<linearGradient id="paint94_linear_16365_54427" x1="143.003" y1="157.428" x2="138.017" y2="158.308" gradientUnits="userSpaceOnUse">
<stop stop-color="#C2E0FF"/>
<stop offset="1" stop-color="#0F85FA"/>
</linearGradient>
<linearGradient id="paint95_linear_16365_54427" x1="137.003" y1="157.028" x2="132.017" y2="157.908" gradientUnits="userSpaceOnUse">
<stop stop-color="#C2E0FF"/>
<stop offset="1" stop-color="#0F85FA"/>
</linearGradient>
<linearGradient id="paint96_linear_16365_54427" x1="131.105" y1="156.728" x2="126.118" y2="157.608" gradientUnits="userSpaceOnUse">
<stop stop-color="#C2E0FF"/>
<stop offset="1" stop-color="#0F85FA"/>
</linearGradient>
<linearGradient id="paint97_linear_16365_54427" x1="124.905" y1="156.428" x2="119.919" y2="157.308" gradientUnits="userSpaceOnUse">
<stop stop-color="#C2E0FF"/>
<stop offset="1" stop-color="#0F85FA"/>
</linearGradient>
<linearGradient id="paint98_linear_16365_54427" x1="119.003" y1="156.128" x2="114.017" y2="157.008" gradientUnits="userSpaceOnUse">
<stop stop-color="#C2E0FF"/>
<stop offset="1" stop-color="#0F85FA"/>
</linearGradient>
<linearGradient id="paint99_linear_16365_54427" x1="113.105" y1="155.828" x2="108.118" y2="156.708" gradientUnits="userSpaceOnUse">
<stop stop-color="#C2E0FF"/>
<stop offset="1" stop-color="#0F85FA"/>
</linearGradient>
<linearGradient id="paint100_linear_16365_54427" x1="106.905" y1="155.628" x2="101.919" y2="156.508" gradientUnits="userSpaceOnUse">
<stop stop-color="#C2E0FF"/>
<stop offset="1" stop-color="#0F85FA"/>
</linearGradient>
</defs>
</svg>
